<mxfile host="app.diagrams.net" modified="2023-09-18T04:37:50.240Z" agent="Mozilla/5.0 (Windows NT 10.0; Win64; x64) AppleWebKit/537.36 (KHTML, like Gecko) Chrome/116.0.0.0 Safari/537.36" etag="klmuwTpmAge07vw1uC6Y" version="21.6.8" type="device">
  <diagram name="Page-1" id="4BKVkALjdeEORlxNTyL3">
    <mxGraphModel dx="1290" dy="566" grid="1" gridSize="10" guides="1" tooltips="1" connect="1" arrows="1" fold="1" page="1" pageScale="1" pageWidth="850" pageHeight="1100" math="0" shadow="0">
      <root>
        <mxCell id="0" />
        <mxCell id="1" parent="0" />
        <mxCell id="iewOWk7ZxsQTiuvKn4HQ-1" value="&lt;font style=&quot;font-size: 14px;&quot;&gt;&lt;b&gt;Raw Signal Data&lt;/b&gt;&lt;/font&gt;" style="rounded=0;whiteSpace=wrap;html=1;fillColor=#D7F9FF;" vertex="1" parent="1">
          <mxGeometry x="80" y="190" width="130" height="100" as="geometry" />
        </mxCell>
        <mxCell id="iewOWk7ZxsQTiuvKn4HQ-18" style="edgeStyle=orthogonalEdgeStyle;rounded=0;orthogonalLoop=1;jettySize=auto;html=1;exitX=0.5;exitY=1;exitDx=0;exitDy=0;entryX=0.5;entryY=0;entryDx=0;entryDy=0;" edge="1" parent="1" source="iewOWk7ZxsQTiuvKn4HQ-2" target="iewOWk7ZxsQTiuvKn4HQ-13">
          <mxGeometry relative="1" as="geometry" />
        </mxCell>
        <mxCell id="iewOWk7ZxsQTiuvKn4HQ-21" style="edgeStyle=orthogonalEdgeStyle;rounded=0;orthogonalLoop=1;jettySize=auto;html=1;exitX=1;exitY=0.5;exitDx=0;exitDy=0;entryX=-0.018;entryY=0.476;entryDx=0;entryDy=0;entryPerimeter=0;" edge="1" parent="1" source="iewOWk7ZxsQTiuvKn4HQ-2" target="iewOWk7ZxsQTiuvKn4HQ-9">
          <mxGeometry relative="1" as="geometry" />
        </mxCell>
        <mxCell id="iewOWk7ZxsQTiuvKn4HQ-2" value="&lt;b&gt;&lt;font style=&quot;font-size: 18px;&quot;&gt;Feature Extractor&lt;br&gt;&lt;br&gt;&lt;br&gt;&lt;br&gt;&lt;br&gt;&lt;br&gt;&lt;br&gt;&lt;br&gt;&lt;br&gt;&lt;br&gt;&lt;br&gt;&lt;br&gt;&lt;/font&gt;&lt;/b&gt;" style="rounded=0;whiteSpace=wrap;html=1;align=center;fillColor=#EAF4F4;" vertex="1" parent="1">
          <mxGeometry x="290" y="100" width="310" height="280" as="geometry" />
        </mxCell>
        <mxCell id="iewOWk7ZxsQTiuvKn4HQ-3" value="&lt;b&gt;Power Spectral Density&lt;/b&gt;" style="rounded=0;whiteSpace=wrap;html=1;fillColor=#6B9080;" vertex="1" parent="1">
          <mxGeometry x="310" y="150" width="80" height="70" as="geometry" />
        </mxCell>
        <mxCell id="iewOWk7ZxsQTiuvKn4HQ-4" value="&lt;b&gt;Entropy&lt;/b&gt;" style="rounded=0;whiteSpace=wrap;html=1;fillColor=#6B9080;" vertex="1" parent="1">
          <mxGeometry x="400" y="150" width="80" height="70" as="geometry" />
        </mxCell>
        <mxCell id="iewOWk7ZxsQTiuvKn4HQ-5" value="&lt;b&gt;PQRST features&lt;/b&gt;" style="rounded=0;whiteSpace=wrap;html=1;fillColor=#6B9080;" vertex="1" parent="1">
          <mxGeometry x="500" y="150" width="80" height="70" as="geometry" />
        </mxCell>
        <mxCell id="iewOWk7ZxsQTiuvKn4HQ-6" value="" style="ellipse;whiteSpace=wrap;html=1;aspect=fixed;strokeColor=#000000;fillColor=#000000;" vertex="1" parent="1">
          <mxGeometry x="391" y="260" width="20" height="20" as="geometry" />
        </mxCell>
        <mxCell id="iewOWk7ZxsQTiuvKn4HQ-7" value="" style="ellipse;whiteSpace=wrap;html=1;aspect=fixed;strokeColor=#000000;fillColor=#000000;" vertex="1" parent="1">
          <mxGeometry x="426" y="260" width="20" height="20" as="geometry" />
        </mxCell>
        <mxCell id="iewOWk7ZxsQTiuvKn4HQ-8" value="" style="ellipse;whiteSpace=wrap;html=1;aspect=fixed;strokeColor=#000000;fillColor=#000000;" vertex="1" parent="1">
          <mxGeometry x="461" y="260" width="20" height="20" as="geometry" />
        </mxCell>
        <mxCell id="iewOWk7ZxsQTiuvKn4HQ-19" style="edgeStyle=orthogonalEdgeStyle;rounded=0;orthogonalLoop=1;jettySize=auto;html=1;exitX=0.5;exitY=1;exitDx=0;exitDy=0;entryX=0.5;entryY=0;entryDx=0;entryDy=0;" edge="1" parent="1" source="iewOWk7ZxsQTiuvKn4HQ-9" target="iewOWk7ZxsQTiuvKn4HQ-14">
          <mxGeometry relative="1" as="geometry" />
        </mxCell>
        <mxCell id="iewOWk7ZxsQTiuvKn4HQ-20" style="edgeStyle=orthogonalEdgeStyle;rounded=0;orthogonalLoop=1;jettySize=auto;html=1;entryX=-0.034;entryY=0.576;entryDx=0;entryDy=0;entryPerimeter=0;" edge="1" parent="1" source="iewOWk7ZxsQTiuvKn4HQ-9" target="iewOWk7ZxsQTiuvKn4HQ-16">
          <mxGeometry relative="1" as="geometry" />
        </mxCell>
        <mxCell id="iewOWk7ZxsQTiuvKn4HQ-9" value="&lt;font style=&quot;font-size: 18px;&quot;&gt;&lt;b&gt;Model&lt;br&gt;&lt;br&gt;&lt;br&gt;&lt;br&gt;&lt;br&gt;&lt;br&gt;&lt;br&gt;&lt;br&gt;&lt;br&gt;&lt;br&gt;&lt;br&gt;&lt;br&gt;&lt;br&gt;&lt;/b&gt;&lt;/font&gt;" style="rounded=0;whiteSpace=wrap;html=1;fillColor=#EAF4F4;" vertex="1" parent="1">
          <mxGeometry x="672" y="97" width="270" height="300" as="geometry" />
        </mxCell>
        <mxCell id="iewOWk7ZxsQTiuvKn4HQ-10" value="&lt;b&gt;Random&lt;br&gt;Forest&lt;/b&gt;" style="rounded=0;whiteSpace=wrap;html=1;fillColor=#6B9080;" vertex="1" parent="1">
          <mxGeometry x="768" y="146" width="80" height="70" as="geometry" />
        </mxCell>
        <mxCell id="iewOWk7ZxsQTiuvKn4HQ-11" value="&lt;b&gt;XG Boost&lt;/b&gt;" style="rounded=0;whiteSpace=wrap;html=1;fillColor=#6B9080;" vertex="1" parent="1">
          <mxGeometry x="768" y="227" width="80" height="70" as="geometry" />
        </mxCell>
        <mxCell id="iewOWk7ZxsQTiuvKn4HQ-12" value="&lt;b&gt;LightBGM&lt;/b&gt;" style="rounded=0;whiteSpace=wrap;html=1;fillColor=#6B9080;" vertex="1" parent="1">
          <mxGeometry x="768" y="306" width="80" height="70" as="geometry" />
        </mxCell>
        <mxCell id="iewOWk7ZxsQTiuvKn4HQ-13" value="&lt;font style=&quot;font-size: 14px;&quot;&gt;&lt;b&gt;Features&lt;/b&gt;&lt;/font&gt;" style="rounded=0;whiteSpace=wrap;html=1;fillColor=#A4C3B2;" vertex="1" parent="1">
          <mxGeometry x="392.5" y="432" width="105" height="80" as="geometry" />
        </mxCell>
        <mxCell id="iewOWk7ZxsQTiuvKn4HQ-14" value="&lt;b&gt;&lt;font style=&quot;font-size: 14px;&quot;&gt;Models&lt;/font&gt;&lt;/b&gt;" style="rounded=0;whiteSpace=wrap;html=1;fillColor=#A4C3B2;" vertex="1" parent="1">
          <mxGeometry x="752.5" y="435" width="105" height="80" as="geometry" />
        </mxCell>
        <mxCell id="iewOWk7ZxsQTiuvKn4HQ-16" value="&lt;font style=&quot;font-size: 14px;&quot;&gt;&lt;b&gt;Training Report&lt;/b&gt;&lt;/font&gt;" style="rounded=0;whiteSpace=wrap;html=1;fillColor=#A4C3B2;" vertex="1" parent="1">
          <mxGeometry x="1003" y="189" width="130" height="100" as="geometry" />
        </mxCell>
        <mxCell id="iewOWk7ZxsQTiuvKn4HQ-17" value="" style="endArrow=classic;html=1;rounded=0;exitX=1;exitY=0.5;exitDx=0;exitDy=0;entryX=0;entryY=0.5;entryDx=0;entryDy=0;" edge="1" parent="1" source="iewOWk7ZxsQTiuvKn4HQ-1" target="iewOWk7ZxsQTiuvKn4HQ-2">
          <mxGeometry width="50" height="50" relative="1" as="geometry">
            <mxPoint x="670" y="310" as="sourcePoint" />
            <mxPoint x="720" y="260" as="targetPoint" />
          </mxGeometry>
        </mxCell>
      </root>
    </mxGraphModel>
  </diagram>
</mxfile>
